<?xml version="1.0" encoding="utf-8"?>
<!-- Generator: Adobe Illustrator 24.1.1, SVG Export Plug-In . SVG Version: 6.00 Build 0)  -->
<svg version="1.1" id="Ebene_1" xmlns="http://www.w3.org/2000/svg" xmlns:xlink="http://www.w3.org/1999/xlink" x="0px" y="0px"
	 viewBox="0 0 960 540" style="enable-background:new 0 0 960 540;" xml:space="preserve">
<style type="text/css">
	.st0{fill:#FFFFFF;stroke:#000000;stroke-miterlimit:10;}
</style>
<path class="st0" d="M232.5,373.5c10.61,71.46,69.25,99.94,55,138c-4.81,12.84-16.02,21.72-29,28H0.5v-463
	c33.64,4.18,48.6,16.34,56,27c7.62,10.98,5.19,17.42,14,34c10.19,19.16,20.93,24.63,37,41c29.95,30.51,20.75,40.14,43,61
	c33.09,31.02,60.12,15.98,79,41C248.13,305.19,225.19,324.31,232.5,373.5z M831.5,375.5c-1.88,14.58,6.77,18.62,4,34
	c-6.42,35.65-58.44,44.41-128,87c-27.85,17.05-48.46,33.37-60,43h313v-239C899.86,314.92,836.34,338.05,831.5,375.5z"/>
</svg>
